<svg xmlns="http://www.w3.org/2000/svg" fill="none" viewBox="0 0 20 20"><g clip-path="url(#a)"><path fill="#AFB1B8" d="M20 3.799a8.554 8.554 0 0 1-2.362.647A4.077 4.077 0 0 0 19.44 2.18a8.193 8.193 0 0 1-2.6.992 4.099 4.099 0 0 0-7.093 2.804c0 .325.028.638.096.935-3.409-.166-6.425-1.8-8.452-4.288a4.128 4.128 0 0 0-.56 2.072c0 1.42.73 2.679 1.82 3.408A4.049 4.049 0 0 1 .8 7.598v.045a4.119 4.119 0 0 0 3.285 4.028 4.09 4.09 0 0 1-1.075.135c-.263 0-.527-.015-.776-.07.531 1.624 2.038 2.818 3.831 2.856a8.238 8.238 0 0 1-5.084 1.75A7.67 7.67 0 0 1 0 16.284a11.543 11.543 0 0 0 6.29 1.84c7.545 0 11.67-6.25 11.67-11.668 0-.18-.006-.356-.015-.53A8.179 8.179 0 0 0 20 3.8Z"/></g><defs><clipPath id="a"><path fill="#fff" d="M0 0h20v20H0z"/></clipPath></defs></svg>