<!-- Generated by IcoMoon.io -->
<svg version="1.1" xmlns="http://www.w3.org/2000/svg" width="57" height="32" viewBox="0 0 57 32">
<title>logo-3</title>
<path fill="#afb1b8" d="M19.417 26.187c0.009 0 0.017 0.002 0.025 0.005l-0-0c0.008 0.003 0.015 0.007 0.021 0.013l-0-0 0.116 0.111c-0.090 0.090-0.202 0.162-0.327 0.211-0.129 0.048-0.278 0.076-0.434 0.076-0.011 0-0.021-0-0.031-0l0.002 0c-0.007 0-0.015 0-0.024 0-0.148 0-0.29-0.026-0.421-0.074l0.009 0.003c-0.125-0.045-0.237-0.113-0.329-0.2-0.094-0.089-0.166-0.194-0.212-0.308s-0.074-0.245-0.074-0.384c0-0.004 0-0.008 0-0.013v0.001c-0-0.004-0-0.009-0-0.013 0-0.139 0.029-0.271 0.082-0.39l-0.002 0.006c0.051-0.115 0.127-0.22 0.225-0.308 0.099-0.087 0.218-0.155 0.349-0.201 0.13-0.045 0.279-0.071 0.435-0.071 0.005 0 0.010 0 0.016 0h-0.001c0.008-0 0.017-0 0.027-0 0.14 0 0.274 0.024 0.399 0.067l-0.009-0.003c0.115 0.043 0.221 0.104 0.313 0.178l-0.097 0.119c-0.007 0.009-0.015 0.016-0.024 0.021l-0 0c-0.010 0.006-0.021 0.009-0.034 0.009-0.002 0-0.004-0-0.006-0l0 0c-0.016-0.001-0.030-0.006-0.043-0.013l0 0-0.052-0.032-0.073-0.040c-0.026-0.013-0.058-0.026-0.092-0.037l-0.006-0.002c-0.036-0.012-0.081-0.023-0.126-0.031l-0.006-0.001c-0.048-0.008-0.103-0.013-0.16-0.013-0.005 0-0.009 0-0.014 0h0.001c-0.003-0-0.008-0-0.012-0-0.112 0-0.219 0.019-0.318 0.055l0.007-0.002c-0.096 0.034-0.182 0.084-0.253 0.149-0.073 0.069-0.128 0.15-0.164 0.238-0.038 0.090-0.060 0.194-0.060 0.303 0 0.004 0 0.007 0 0.011v-0.001c-0 0.004-0 0.008-0 0.012 0 0.11 0.022 0.216 0.062 0.312l-0.002-0.005c0.035 0.087 0.090 0.167 0.161 0.236 0.067 0.064 0.149 0.114 0.241 0.147 0.095 0.034 0.197 0.051 0.3 0.050 0.005 0 0.011 0 0.017 0 0.056 0 0.112-0.004 0.167-0.011l-0.006 0.001c0.1-0.011 0.191-0.041 0.273-0.087l-0.003 0.002c0.044-0.025 0.081-0.051 0.116-0.080l-0.002 0.001c0.015-0.012 0.034-0.020 0.055-0.020h0zM22.776 25.629c0 0.003 0 0.008 0 0.012 0 0.138-0.029 0.269-0.081 0.388l0.002-0.006c-0.047 0.114-0.122 0.218-0.219 0.305s-0.214 0.155-0.344 0.2c-0.132 0.045-0.284 0.071-0.442 0.071s-0.31-0.026-0.452-0.074l0.010 0.003c-0.129-0.046-0.245-0.114-0.342-0.201-0.097-0.089-0.172-0.194-0.221-0.308-0.105-0.255-0.105-0.533 0-0.787 0.050-0.115 0.125-0.22 0.221-0.31 0.097-0.084 0.214-0.15 0.342-0.193 0.132-0.046 0.284-0.072 0.442-0.072s0.31 0.026 0.452 0.075l-0.010-0.003c0.129 0.046 0.246 0.114 0.343 0.201 0.096 0.088 0.17 0.191 0.22 0.304 0.054 0.127 0.080 0.261 0.078 0.395zM22.47 25.629c0-0.005 0-0.011 0-0.017 0-0.108-0.020-0.21-0.057-0.305l0.002 0.006c-0.033-0.087-0.086-0.168-0.156-0.236-0.068-0.065-0.152-0.116-0.246-0.149-0.096-0.033-0.206-0.052-0.321-0.052s-0.225 0.019-0.329 0.054l0.007-0.002c-0.094 0.033-0.178 0.084-0.246 0.149-0.071 0.068-0.125 0.149-0.157 0.236-0.035 0.094-0.056 0.203-0.056 0.316s0.020 0.222 0.058 0.322l-0.002-0.006c0.033 0.087 0.086 0.168 0.157 0.236 0.068 0.065 0.152 0.115 0.246 0.148 0.096 0.032 0.207 0.050 0.321 0.050s0.225-0.018 0.329-0.053l-0.007 0.002c0.093-0.033 0.177-0.083 0.246-0.148 0.070-0.069 0.123-0.149 0.156-0.236 0.035-0.088 0.055-0.191 0.055-0.298 0-0.006-0-0.013-0-0.019l0 0.001zM25.067 25.96l0.030 0.071c0.012-0.025 0.022-0.048 0.033-0.071 0.013-0.027 0.026-0.050 0.039-0.072l-0.002 0.003 0.743-1.174c0.015-0.020 0.028-0.033 0.042-0.037s0.033-0.007 0.051-0.007c0.004 0 0.007 0 0.011 0l-0-0h0.22v1.909h-0.26v-1.463c-0.001-0.010-0.001-0.021-0.001-0.033s0-0.023 0.001-0.034l-0 0.002-0.747 1.19c-0.010 0.018-0.025 0.033-0.043 0.043l-0.001 0c-0.018 0.010-0.040 0.016-0.063 0.016-0 0-0.001 0-0.001 0h-0.042c-0.001 0-0.001 0-0.002 0-0.023 0-0.044-0.006-0.063-0.016l0.001 0c-0.019-0.010-0.033-0.025-0.043-0.043l-0-0.001-0.769-1.198v1.532h-0.252v-1.905h0.22c0.003-0 0.007-0 0.010-0 0.018 0 0.035 0.002 0.052 0.007l-0.001-0c0.018 0.007 0.032 0.020 0.041 0.036l0 0 0.759 1.175c0.014 0.020 0.026 0.042 0.037 0.066l0.001 0.003zM27.864 25.865v0.715h-0.291v-1.906h0.649c0.007-0 0.015-0 0.024-0 0.12 0 0.237 0.015 0.348 0.044l-0.010-0.002c0.094 0.023 0.181 0.064 0.256 0.119 0.065 0.052 0.114 0.116 0.145 0.187 0.034 0.078 0.051 0.161 0.049 0.244 0 0.002 0 0.005 0 0.007 0 0.086-0.020 0.167-0.055 0.24l0.001-0.003c-0.035 0.073-0.089 0.138-0.157 0.191-0.073 0.056-0.159 0.099-0.252 0.125l-0.005 0.001c-0.098 0.028-0.211 0.044-0.327 0.044-0.008 0-0.016-0-0.025-0l0.001 0-0.352-0.005zM27.864 25.66h0.352c0.003 0 0.006 0 0.010 0 0.077 0 0.151-0.011 0.221-0.030l-0.006 0.001c0.062-0.018 0.117-0.046 0.164-0.083l-0.001 0.001c0.042-0.033 0.076-0.076 0.098-0.124l0.001-0.002c0.022-0.046 0.035-0.099 0.035-0.156 0-0.002 0-0.003-0-0.005v0c0-0.006 0.001-0.013 0.001-0.020 0-0.049-0.011-0.096-0.031-0.137l0.001 0.002c-0.025-0.052-0.059-0.095-0.101-0.13l-0.001-0.001c-0.111-0.075-0.251-0.112-0.391-0.102h-0.352v0.786zM31.772 26.583h-0.23c-0.001 0-0.003 0-0.004 0-0.022 0-0.043-0.007-0.060-0.018l0 0c-0.016-0.011-0.029-0.026-0.038-0.044l-0-0.001-0.198-0.461h-0.993l-0.205 0.461c-0.008 0.018-0.021 0.032-0.036 0.043l-0 0c-0.017 0.012-0.039 0.019-0.062 0.019-0.001 0-0.003-0-0.004-0h-0.23l0.872-1.909h0.302l0.884 1.909zM30.333 25.874h0.82l-0.346-0.777c-0.023-0.049-0.045-0.109-0.063-0.171l-0.002-0.009-0.034 0.1c-0.011 0.034-0.022 0.060-0.034 0.086l0.002-0.006-0.343 0.776zM33.029 24.682c0.017 0.008 0.032 0.020 0.043 0.034l0 0 1.272 1.439v-1.482h0.26v1.909h-0.145c-0.001 0-0.003 0-0.004 0-0.020 0-0.039-0.004-0.057-0.012l0.001 0c-0.018-0.009-0.034-0.021-0.046-0.035l-0-0-1.271-1.438c0.001 0.010 0.001 0.021 0.001 0.033s-0 0.023-0.001 0.034l0-0.002v1.419h-0.26v-1.909h0.154c0.001-0 0.002-0 0.004-0 0.017 0 0.034 0.003 0.050 0.009l-0.001-0zM36.748 25.823v0.758h-0.291v-0.758l-0.804-1.15h0.26c0.002-0 0.004-0 0.006-0 0.021 0 0.041 0.006 0.057 0.017l-0-0c0.015 0.012 0.029 0.026 0.039 0.042l0 0.001 0.503 0.742c0.020 0.032 0.038 0.061 0.052 0.088s0.026 0.054 0.036 0.081l0.038-0.082c0.016-0.034 0.032-0.062 0.051-0.089l-0.002 0.002 0.496-0.747c0.011-0.015 0.023-0.029 0.037-0.040l0-0c0.016-0.012 0.036-0.019 0.058-0.019 0.002 0 0.003 0 0.005 0h0.263l-0.806 1.155zM24.923 21.47c0.127 0.014 0.255 0.025 0.384 0.035 1.962-0.763 3.622-2.011 4.772-3.588s1.74-3.415 1.695-5.282l-2.162-1.879c0.44 1.988 0.234 4.043-0.594 5.935s-2.245 3.547-4.094 4.779z"></path>
<path fill="#afb1b8" d="M24.151 21.383l0.058 0.010c1.975-1.228 3.482-2.942 4.323-4.921s0.981-4.133 0.4-6.181l-3.080-2.676c1.246 2.2 1.747 4.661 1.446 7.098s-1.393 4.75-3.147 6.67zM34.596 14.841c-0.523 2.052-1.794 3.902-3.624 5.276-0.534 0.404-1.111 0.763-1.722 1.074 1.49-0.38 2.859-1.053 4.003-1.966s2.030-2.042 2.592-3.3l-1.249-1.084z"></path>
<path fill="#afb1b8" d="M34.106 14.539l-1.778-1.545c-0.034 1.762-0.61 3.483-1.669 4.986s-2.562 2.731-4.352 3.559h0.009c0.421-0 0.836-0.023 1.245-0.066l-0.051 0.004c1.673-0.593 3.151-1.537 4.303-2.748s1.94-2.65 2.295-4.189zM24.409 6.486l-2.122-1.846c-1.897 0.637-3.528 1.756-4.68 3.212s-1.772 3.179-1.778 4.946c0.007 1.952 0.763 3.846 2.149 5.383s3.322 2.628 5.501 3.101c1.946-2.060 3.085-4.605 3.252-7.266s-0.647-5.299-2.323-7.53zM39.008 14.255c-0.008-2.316-1.070-4.535-2.955-6.173s-4.439-2.561-7.105-2.567c-1.232-0.001-2.453 0.196-3.602 0.582l12.99 11.286c0.445-0.998 0.673-2.058 0.672-3.128z"></path>
</svg>
